# File created by Blade
# Date/Time:  Tue Apr 07 21:36:59 2015
# Frame Rate: 120.000 fps
#------------------------------------------------------
:FULLY-SPECIFIED
:DEGREES
934
root -4.426456 33.018175 7.207187 553.725599 177.040274 -542.459473
Spine -14.930615 -7.398593 2.739679
Head 10.767896 -1.884142 -3.240484
LeftShoulder -22.774882 39.900207 16.180831
LeftArm 60.457959 -55.314313 -58.667005
LeftForeArm 11.864395 -0.000000 -0.808196
LeftHand 1.804141 -0.000000 4.102250
LeftHandThumb1 -26.253704 0.000000 33.147579
RightShoulder -6.336922 3.989890 -31.176159
RightArm 12.892013 15.026956 41.965887
RightForeArm -15.717008 -0.000000 2.556147
RightHand 0.606073 -0.000000 1.439079
RightHandThumb1 -24.326973 -0.000000 -32.862282
LeftUpLeg -6.748227 -3.774426 6.471851
LeftLeg -4.838220 -0.000000 0.000000
LeftFoot -4.355478 8.162590 -20.255308
LeftToeBase -10.743814 -0.000000 0.000000
RightUpLeg -5.191351 1.995370 2.156014
RightLeg -6.569806 -0.000000 0.000000
RightFoot -3.276970 -14.763265 7.831462
RightToeBase -3.021647 -0.000000 0.000000
935
root -4.429282 33.018802 7.218583 553.730926 177.022312 -542.451823
Spine -14.960967 -7.401435 2.745741
Head 10.733718 -1.860444 -3.273395
LeftShoulder -22.780016 39.899539 16.166856
LeftArm 60.427287 -55.313085 -58.635083
LeftForeArm 11.882422 -0.000000 -0.794095
LeftHand 1.767488 -0.000000 4.145568
LeftHandThumb1 -26.253704 0.000000 33.147579
RightShoulder -6.344962 3.975803 -31.181648
RightArm 12.943373 15.014257 41.985028
RightForeArm -15.692896 -0.000000 2.545859
RightHand 0.551866 -0.000000 1.392312
RightHandThumb1 -24.326973 -0.000000 -32.862282
LeftUpLeg -6.727187 -3.797647 6.469225
LeftLeg -4.865490 -0.000000 0.000000
LeftFoot -4.331011 8.218584 -20.221572
LeftToeBase -10.719400 -0.000000 0.000000
RightUpLeg -5.177014 1.978497 2.162238
RightLeg -6.571663 -0.000000 0.000000
RightFoot -3.273958 -14.778615 7.837477
RightToeBase -3.045594 -0.000000 0.000000
936
root -4.432335 33.019033 7.228748 553.747127 177.011373 -542.459207
Spine -15.001268 -7.381893 2.762713
Head 10.705036 -1.860040 -3.309340
LeftShoulder -22.799666 39.935726 16.140052
LeftArm 60.501171 -55.329047 -58.699874
LeftForeArm 11.831731 -0.000000 -0.769156
LeftHand 1.738978 -0.000000 4.103670
LeftHandThumb1 -26.253704 0.000000 33.147579
RightShoulder -6.361262 3.849093 -31.158854
RightArm 13.072311 15.056435 41.993456
RightForeArm -15.691685 0.000000 2.525577
RightHand 0.587222 -0.000000 1.425358
RightHandThumb1 -24.326973 -0.000000 -32.862282
LeftUpLeg -6.726919 -3.794229 6.479422
LeftLeg -4.869980 -0.000000 0.000000
LeftFoot -4.322474 8.236026 -20.181100
LeftToeBase -10.821367 -0.000000 0.000000
RightUpLeg -5.180147 1.969785 2.177698
RightLeg -6.562444 -0.000000 0.000000
RightFoot -3.284154 -14.777229 7.864421
RightToeBase -3.064154 -0.000000 0.000000
937
root -4.435174 33.019947 7.238848 553.757380 176.994027 -542.452192
Spine -15.035936 -7.383497 2.767619
Head 10.675136 -1.832574 -3.335349
LeftShoulder -22.810619 39.940361 16.127117
LeftArm 60.498581 -55.317829 -58.705080
LeftForeArm 11.866879 -0.000000 -0.743118
LeftHand 1.701737 -0.000000 4.117634
LeftHandThumb1 -26.253704 0.000000 33.147579
RightShoulder -6.337956 3.936174 -31.184284
RightArm 12.996517 15.029872 42.014154
RightForeArm -15.788027 -0.000000 2.556684
RightHand 0.602541 -0.000000 1.425947
RightHandThumb1 -24.326973 -0.000000 -32.862282
LeftUpLeg -6.713597 -3.833303 6.482245
LeftLeg -4.892075 -0.000000 0.000000
LeftFoot -4.298007 8.283477 -20.164435
LeftToeBase -10.826460 -0.000000 0.000000
RightUpLeg -5.171881 1.969047 2.180131
RightLeg -6.566317 -0.000000 0.000000
RightFoot -3.269086 -14.818176 7.845985
RightToeBase -3.100224 -0.000000 0.000000
